<?xml version="1.0" encoding="utf-8"?>
<svg xmlns="http://www.w3.org/2000/svg" viewBox="20.1 57.3 655.6 106.1">
    <path d="M 20.136 59.205 L 75.507 59.205 C 80.927 59.205 85.871 60.523 90.339 63.16 C 94.806 65.797 98.358 69.324 100.995 73.743 C 103.631 78.162 104.95 83.082 104.95 88.501 L 104.95 134.351 C 104.95 139.673 103.631 144.531 100.995 148.926 C 98.358 153.321 94.806 156.824 90.339 159.437 C 85.871 162.049 80.927 163.355 75.507 163.355 L 20.136 163.355 L 20.136 59.205 Z M 75.507 147.901 C 79.413 147.901 82.733 146.558 85.468 143.873 C 88.202 141.187 89.57 137.94 89.57 134.131 L 89.57 88.501 C 89.57 84.644 88.202 81.36 85.468 78.65 C 82.733 75.94 79.413 74.585 75.507 74.585 L 35.59 74.585 L 35.59 147.901 L 75.507 147.901 Z M 121.795 114.722 C 121.795 109.693 123.028 105.127 125.494 101.026 C 127.959 96.925 131.267 93.641 135.418 91.175 C 139.568 88.709 144.158 87.476 149.188 87.476 L 191.522 87.476 L 191.522 163.355 L 176.067 163.355 L 176.067 102.93 L 149.188 102.93 C 145.916 102.93 143.108 104.09 140.765 106.409 C 138.421 108.728 137.249 111.548 137.249 114.869 L 137.249 135.816 C 137.249 139.136 138.421 141.98 140.765 144.349 C 143.108 146.717 145.916 147.901 149.188 147.901 L 167.278 147.901 L 167.278 163.355 L 149.188 163.355 C 144.158 163.355 139.568 162.122 135.418 159.656 C 131.267 157.191 127.959 153.883 125.494 149.732 C 123.028 145.581 121.795 140.991 121.795 135.962 L 121.795 114.722 Z M 205.436 87.476 L 215.324 87.476 L 215.324 59.205 L 230.778 59.205 L 230.778 87.476 L 254.142 87.476 L 254.142 102.93 L 230.778 102.93 L 230.778 141.822 C 230.778 143.482 231.425 144.91 232.719 146.106 C 234.013 147.303 235.563 147.901 237.37 147.901 L 254.142 147.901 L 254.142 163.355 L 237.15 163.355 C 233.146 163.355 229.496 162.391 226.2 160.462 C 222.904 158.533 220.268 155.945 218.29 152.698 C 216.312 149.451 215.324 145.85 215.324 141.895 L 215.324 102.93 L 205.436 102.93 L 205.436 87.476 Z M 267.324 114.722 C 267.324 109.693 268.557 105.127 271.023 101.026 C 273.489 96.925 276.797 93.641 280.947 91.175 C 285.097 88.709 289.687 87.476 294.717 87.476 L 337.051 87.476 L 337.051 163.355 L 321.597 163.355 L 321.597 102.93 L 294.717 102.93 C 291.445 102.93 288.638 104.09 286.294 106.409 C 283.95 108.728 282.778 111.548 282.778 114.869 L 282.778 135.816 C 282.778 139.136 283.95 141.98 286.294 144.349 C 288.638 146.717 291.445 147.901 294.717 147.901 L 312.808 147.901 L 312.808 163.355 L 294.717 163.355 C 289.687 163.355 285.097 162.122 280.947 159.656 C 276.797 157.191 273.489 153.883 271.023 149.732 C 268.557 145.581 267.324 140.991 267.324 135.962 L 267.324 114.722 Z M 356.093 59.205 L 371.547 59.205 L 371.547 101.392 L 379.237 101.392 L 420.546 59.205 L 441.859 59.205 L 391.469 110.694 L 445.009 163.355 L 423.402 163.355 L 376.088 116.846 L 371.547 116.846 L 371.547 163.355 L 356.093 163.355 L 356.093 59.205 Z M 450.141 114.869 C 450.141 109.84 451.373 105.25 453.839 101.099 C 456.305 96.949 459.613 93.641 463.764 91.175 C 467.914 88.709 472.503 87.476 477.533 87.476 L 494.086 87.476 C 499.115 87.476 503.705 88.709 507.856 91.175 C 512.006 93.641 515.314 96.949 517.78 101.099 C 520.246 105.25 521.479 109.84 521.479 114.869 L 521.479 135.962 C 521.479 140.991 520.246 145.581 517.78 149.732 C 515.314 153.883 512.006 157.191 507.856 159.656 C 503.705 162.122 499.115 163.355 494.086 163.355 L 477.533 163.355 C 472.503 163.355 467.914 162.122 463.764 159.656 C 459.613 157.191 456.305 153.883 453.839 149.732 C 451.373 145.581 450.141 140.991 450.141 135.962 L 450.141 114.869 Z M 465.595 135.816 C 465.595 139.136 466.766 141.98 469.11 144.349 C 471.454 146.717 474.261 147.901 477.533 147.901 L 494.086 147.901 C 497.406 147.901 500.226 146.717 502.546 144.349 C 504.865 141.98 506.025 139.136 506.025 135.816 L 506.025 115.015 C 506.025 111.695 504.865 108.851 502.546 106.482 C 500.226 104.114 497.406 102.93 494.086 102.93 L 477.533 102.93 C 474.261 102.93 471.454 104.114 469.11 106.482 C 466.766 108.851 465.595 111.695 465.595 115.015 L 465.595 135.816 Z M 538.317 59.205 L 553.772 59.205 L 553.772 163.355 L 538.317 163.355 L 538.317 59.205 Z M 569.595 66.822 C 569.595 64.185 570.522 61.939 572.378 60.084 C 574.233 58.228 576.479 57.3 579.116 57.3 C 581.752 57.3 583.999 58.228 585.855 60.084 C 587.71 61.939 588.638 64.185 588.638 66.822 C 588.638 69.459 587.71 71.705 585.855 73.56 C 583.999 75.415 581.752 76.343 579.116 76.343 C 576.479 76.343 574.233 75.415 572.378 73.56 C 570.522 71.705 569.595 69.459 569.595 66.822 Z M 571.353 87.476 L 586.88 87.476 L 586.88 163.355 L 571.353 163.355 L 571.353 87.476 Z M 604.455 59.205 L 619.909 59.205 L 619.909 116.553 L 625.109 116.553 L 652.575 87.476 L 672.643 87.476 L 638 124.244 L 675.72 163.355 L 654.113 163.355 L 623.718 132.007 L 619.909 132.007 L 619.909 163.355 L 604.455 163.355 L 604.455 59.205 Z" fill="#FEF0D5"/>
</svg>
